<svg xmlns="http://www.w3.org/2000/svg" xmlns:xlink="http://www.w3.org/1999/xlink" width="160" height="44pt" viewBox="0 0 120 44"><g id="graph0" class="graph" transform="scale(1 1) rotate(0) translate(4 40)"><polygon fill="#fff" stroke="none" points="-4 4 -4 -40 116 -40 116 4 -4 4"/><g id="node1" class="node"><title>0</title><path fill="#d3d3d3" stroke="gray" stroke-width="2" d="M100,-36C100,-36 12,-36 12,-36 6,-36 0,-30 0,-24 0,-24 0,-12 0,-12 0,-6 6,0 12,0 12,0 100,0 100,0 106,0 112,-6 112,-12 112,-12 112,-24 112,-24 112,-30 106,-36 100,-36"/><text x="56" y="-12.57" font-family="Times New Roman,serif" font-size="14" text-anchor="middle">ActionNodeStyle</text></g></g></svg>