<svg xmlns="http://www.w3.org/2000/svg" xmlns:xlink="http://www.w3.org/1999/xlink" width="901pt" height="900" viewBox="0 0 901.46 675.12"><g id="graph0" class="graph" transform="scale(1 1) rotate(0) translate(4 671.12)"><polygon fill="#fff" stroke="none" points="-4 4 -4 -671.12 897.46 -671.12 897.46 4 -4 4"/><g id="node1" class="node"><title>rover.flows.ground</title><ellipse cx="467.05" cy="-313.16" fill="orange" stroke="gray" stroke-width="0" rx="87.15" ry="27.93"/><text x="467.05" y="-315.61" font-family="Times New Roman,serif" font-size="14" text-anchor="middle">rover.flows.ground</text><text x="467.05" y="-299.86" font-family="Times New Roman,serif" font-size="14" text-anchor="middle">[]</text></g><g id="node2" class="node"><title>rover.flows.force</title><ellipse cx="782.14" cy="-560.49" fill="#d3d3d3" stroke="gray" stroke-width="0" rx="79.73" ry="27.93"/><text x="782.14" y="-562.94" font-family="Times New Roman,serif" font-size="14" text-anchor="middle">rover.flows.force</text><text x="782.14" y="-547.19" font-family="Times New Roman,serif" font-size="14" text-anchor="middle">[]</text></g><g id="node3" class="node"><title>rover.flows.ee</title><ellipse cx="67.53" cy="-448.63" fill="#d3d3d3" stroke="gray" stroke-width="0" rx="67.53" ry="27.93"/><text x="67.53" y="-451.08" font-family="Times New Roman,serif" font-size="14" text-anchor="middle">rover.flows.ee</text><text x="67.53" y="-435.33" font-family="Times New Roman,serif" font-size="14" text-anchor="middle">[]</text></g><g id="node4" class="node"><title>rover.flows.video</title><ellipse cx="348.41" cy="-48.81" fill="#d3d3d3" stroke="gray" stroke-width="0" rx="80.79" ry="27.93"/><text x="348.41" y="-51.26" font-family="Times New Roman,serif" font-size="14" text-anchor="middle">rover.flows.video</text><text x="348.41" y="-35.51" font-family="Times New Roman,serif" font-size="14" text-anchor="middle">[]</text></g><g id="node5" class="node"><title>rover.flows.control</title><ellipse cx="591.3" cy="-27.93" fill="#d3d3d3" stroke="gray" stroke-width="0" rx="87.15" ry="27.93"/><text x="591.3" y="-30.38" font-family="Times New Roman,serif" font-size="14" text-anchor="middle">rover.flows.control</text><text x="591.3" y="-14.63" font-family="Times New Roman,serif" font-size="14" text-anchor="middle">[]</text></g><g id="node6" class="node"><title>rover.flows.comms</title><ellipse cx="205.71" cy="-639.19" fill="#d3d3d3" stroke="gray" stroke-width="0" rx="88.21" ry="27.93"/><text x="205.71" y="-641.64" font-family="Times New Roman,serif" font-size="14" text-anchor="middle">rover.flows.comms</text><text x="205.71" y="-625.89" font-family="Times New Roman,serif" font-size="14" text-anchor="middle">[]</text></g><g id="node7" class="node"><title>rover.fxns.control_rover</title><polygon fill="#d3d3d3" stroke="gray" stroke-width="2" points="893.46 -142.85 740.21 -142.85 740.21 -103.35 893.46 -103.35 893.46 -142.85"/><text x="816.84" y="-125.55" font-family="Times New Roman,serif" font-size="14" text-anchor="middle">rover.fxns.control_rover</text><text x="816.84" y="-109.8" font-family="Times New Roman,serif" font-size="14" text-anchor="middle">[]</text></g><g id="edge1" class="edge"><title>rover.fxns.control_rover-&gt;rover.flows.control</title><path fill="none" stroke="#000" d="M755.88,-97.38C720.81,-82.58 677.19,-64.17 643.68,-50.03"/><polygon fill="none" stroke="#000" points="756.01 -97.43 763.09 -96.08 767.07 -102.1 759.98 -103.45 756.01 -97.43"/><text x="679.15" y="-76.15" font-family="Times New Roman,serif" font-size="14" text-anchor="middle">&lt;flow&gt;</text></g><g id="node8" class="node"><title>rover.fxns.view_ground</title><polygon fill="#d3d3d3" stroke="gray" stroke-width="2" points="364.09 -358.44 214.59 -358.44 214.59 -318.94 364.09 -318.94 364.09 -358.44"/><text x="289.34" y="-341.14" font-family="Times New Roman,serif" font-size="14" text-anchor="middle">rover.fxns.view_ground</text><text x="289.34" y="-325.39" font-family="Times New Roman,serif" font-size="14" text-anchor="middle">[]</text></g><g id="edge10" class="edge"><title>rover.fxns.view_ground-&gt;rover.flows.ground</title><path fill="none" stroke="#000" d="M377.8,-325.98C381.14,-325.5 384.48,-325.02 387.8,-324.54"/><polygon fill="none" stroke="#000" points="377.73 -325.99 372.36 -330.8 365.85 -327.7 371.22 -322.88 377.73 -325.99"/><text x="362.17" y="-311.96" font-family="Times New Roman,serif" font-size="14" text-anchor="middle">&lt;flow&gt;</text></g><g id="edge9" class="edge"><title>rover.fxns.view_ground-&gt;rover.flows.force</title><path fill="none" stroke="#000" d="M346.97,-364.63C444.81,-408.66 641.69,-497.28 733.25,-538.49"/><polygon fill="none" stroke="#000" points="347.02 -364.65 339.91 -365.84 336.08 -359.72 343.19 -358.54 347.02 -364.65"/><text x="519.48" y="-454.01" font-family="Times New Roman,serif" font-size="14" text-anchor="middle">&lt;flow&gt;</text></g><g id="edge8" class="edge"><title>rover.fxns.view_ground-&gt;rover.flows.ee</title><path fill="none" stroke="#000" d="M236.13,-365.06C197.69,-384.11 146.44,-409.52 110.57,-427.3"/><polygon fill="none" stroke="#000" points="236.06 -365.1 239.66 -358.85 246.81 -359.77 243.21 -366.02 236.06 -365.1"/><text x="152.73" y="-398.63" font-family="Times New Roman,serif" font-size="14" text-anchor="middle">&lt;flow&gt;</text></g><g id="edge11" class="edge"><title>rover.fxns.view_ground-&gt;rover.flows.video</title><path fill="none" stroke="#000" d="M296.06,-305.68C307.8,-248.1 331.8,-130.33 342.74,-76.62"/><polygon fill="none" stroke="#000" points="296.07 -305.66 298.79 -312.34 293.67 -317.42 290.95 -310.74 296.07 -305.66"/><text x="298.78" y="-193.6" font-family="Times New Roman,serif" font-size="14" text-anchor="middle">&lt;flow&gt;</text></g><g id="node9" class="node"><title>rover.fxns.communicate</title><polygon fill="#d3d3d3" stroke="gray" stroke-width="2" points="577.15 -619.66 426.15 -619.66 426.15 -580.16 577.15 -580.16 577.15 -619.66"/><text x="501.65" y="-602.36" font-family="Times New Roman,serif" font-size="14" text-anchor="middle">rover.fxns.communicate</text><text x="501.65" y="-586.61" font-family="Times New Roman,serif" font-size="14" text-anchor="middle">[]</text></g><g id="edge13" class="edge"><title>rover.fxns.communicate-&gt;rover.flows.ee</title><path fill="none" stroke="#000" d="M429.98,-574.94C342.42,-544.42 196.43,-493.55 119.16,-466.63"/><polygon fill="none" stroke="#000" points="430.02 -574.95 437 -573.15 441.35 -578.9 434.37 -580.7 430.02 -574.95"/><text x="253.95" y="-523.23" font-family="Times New Roman,serif" font-size="14" text-anchor="middle">&lt;flow&gt;</text></g><g id="edge12" class="edge"><title>rover.fxns.communicate-&gt;rover.flows.comms</title><path fill="none" stroke="#000" d="M412.72,-611.71C372.73,-617.02 325.87,-623.24 286.85,-628.42"/><polygon fill="none" stroke="#000" points="412.65 -611.72 418.07 -606.97 424.55 -610.14 419.13 -614.9 412.65 -611.72"/><text x="329.16" y="-622.52" font-family="Times New Roman,serif" font-size="14" text-anchor="middle">&lt;flow&gt;</text></g><g id="node10" class="node"><title>rover.fxns.store_energy</title><polygon fill="orange" stroke="red" stroke-width="2" points="168.5 -111.37 19.75 -111.37 19.75 -71.87 168.5 -71.87 168.5 -111.37"/><text x="94.12" y="-94.07" font-family="Times New Roman,serif" font-size="14" text-anchor="middle">rover.fxns.store_energy</text><text x="94.12" y="-78.32" font-family="Times New Roman,serif" font-size="14" text-anchor="middle">[&apos;no_charge&apos;]</text></g><g id="edge3" class="edge"><title>rover.fxns.store_energy-&gt;rover.flows.ee</title><path fill="none" stroke="#000" d="M91.63,-125.11C86.41,-195.19 74.42,-356.19 69.59,-420.93"/><polygon fill="none" stroke="#000" points="91.62 -125.22 88.08 -118.94 92.51 -113.26 96.06 -119.54 91.62 -125.22"/><text x="59.99" y="-275.47" font-family="Times New Roman,serif" font-size="14" text-anchor="middle">&lt;flow&gt;</text></g><g id="edge2" class="edge"><title>rover.fxns.store_energy-&gt;rover.flows.control</title><path fill="none" stroke="#000" d="M182.12,-80.35C275.04,-68.44 420.31,-49.83 510.44,-38.29"/><polygon fill="none" stroke="#000" points="182.16 -80.34 176.72 -85.07 170.26 -81.87 175.7 -77.14 182.16 -80.34"/><text x="325.65" y="-61.77" font-family="Times New Roman,serif" font-size="14" text-anchor="middle">&lt;flow&gt;</text></g><g id="node11" class="node"><title>rover.fxns.move_rover</title><polygon fill="orange" stroke="red" stroke-width="2" points="722.13 -330.88 577.88 -330.88 577.88 -291.38 722.13 -291.38 722.13 -330.88"/><text x="650.01" y="-313.58" font-family="Times New Roman,serif" font-size="14" text-anchor="middle">rover.fxns.move_rover</text><text x="650.01" y="-297.83" font-family="Times New Roman,serif" font-size="14" text-anchor="middle">[&apos;short&apos;]</text></g><g id="edge7" class="edge"><title>rover.fxns.move_rover-&gt;rover.flows.ground</title><path fill="none" stroke="#000" d="M564.02,-312.08C560.65,-312.12 557.28,-312.16 553.91,-312.2"/><polygon fill="none" stroke="#000" points="564.01 -312.08 569.96 -308.02 576.01 -311.95 570.05 -316.02 564.01 -312.08"/><text x="558.96" y="-298.84" font-family="Times New Roman,serif" font-size="14" text-anchor="middle">&lt;flow&gt;</text></g><g id="edge6" class="edge"><title>rover.fxns.move_rover-&gt;rover.flows.force</title><path fill="none" stroke="#000" d="M666.77,-342.77C692.91,-392.09 742.93,-486.5 767.62,-533.09"/><polygon fill="none" stroke="#000" points="666.86 -342.94 660.52 -339.51 661.24 -332.33 667.59 -335.76 666.86 -342.94"/><text x="696.57" y="-440.38" font-family="Times New Roman,serif" font-size="14" text-anchor="middle">&lt;flow&gt;</text></g><g id="edge5" class="edge"><title>rover.fxns.move_rover-&gt;rover.flows.ee</title><path fill="none" stroke="#000" d="M564.75,-331.26C444.82,-359.57 229.39,-410.42 126.01,-434.83"/><polygon fill="none" stroke="#000" points="564.56 -331.3 569.48 -326.03 576.24 -328.54 571.32 -333.82 564.56 -331.3"/><text x="324.76" y="-385.49" font-family="Times New Roman,serif" font-size="14" text-anchor="middle">&lt;flow&gt;</text></g><g id="edge4" class="edge"><title>rover.fxns.move_rover-&gt;rover.flows.control</title><path fill="none" stroke="#000" d="M643.15,-278.04C631.45,-221.6 607.85,-107.77 597,-55.41"/><polygon fill="none" stroke="#000" points="643.17 -278.13 648.3 -283.19 645.6 -289.88 640.47 -284.82 643.17 -278.13"/><text x="599.45" y="-169.18" font-family="Times New Roman,serif" font-size="14" text-anchor="middle">&lt;flow&gt;</text></g></g></svg>