<svg xmlns="http://www.w3.org/2000/svg" xmlns:xlink="http://www.w3.org/1999/xlink" width="881pt" height="596" viewBox="0 0 881.14 447"><g id="graph0" class="graph" transform="scale(1 1) rotate(0) translate(4 443)"><polygon fill="#fff" stroke="none" points="-4 4 -4 -443 877.14 -443 877.14 4 -4 4"/><g id="node1" class="node"><title>Rover</title><polygon fill="#d3d3d3" stroke="gray" points="532.1 -439 464.9 -403.38 599.3 -403.38 532.1 -439"/><text x="532.1" y="-409.82" font-family="Times New Roman,serif" font-size="14" text-anchor="middle">Rover</text></g><g id="node2" class="node"><title>ControlRover</title><ellipse cx="811.1" cy="-213.75" fill="none" stroke="gray" stroke-width="2" rx="62.04" ry="18"/><text x="811.1" y="-208.32" font-family="Times New Roman,serif" font-size="14" text-anchor="middle">ControlRover</text></g><g id="edge1" class="edge"><title>Rover-&gt;ControlRover</title><path fill="none" stroke="#000" d="M573.9,-398.07C613.14,-381.72 672.35,-353.98 717.1,-319.5 750.78,-293.55 782.1,-254.49 798.71,-232.12"/><polygon fill="#000" stroke="#000" points="573.85 -398.09 569.8 -404.07 562.74 -402.63 566.78 -396.66 573.85 -398.09"/><text x="776.1" y="-306.2" font-family="Times New Roman,serif" font-size="14" text-anchor="middle">&lt;containment&gt;</text></g><g id="node3" class="node"><title>ViewGround</title><ellipse cx="161.1" cy="-213.75" fill="none" stroke="gray" stroke-width="2" rx="58.55" ry="18"/><text x="161.1" y="-208.32" font-family="Times New Roman,serif" font-size="14" text-anchor="middle">ViewGround</text></g><g id="edge2" class="edge"><title>Rover-&gt;ViewGround</title><path fill="none" stroke="#000" d="M498.19,-397.08C461.33,-378.33 400.77,-347.27 349.1,-319.5 291.67,-288.64 225.18,-251.18 188.67,-230.46"/><polygon fill="#000" stroke="#000" points="498.23 -397.1 505.39 -396.25 508.93 -402.54 501.77 -403.39 498.23 -397.1"/><text x="391.1" y="-306.2" font-family="Times New Roman,serif" font-size="14" text-anchor="middle">&lt;containment&gt;</text></g><g id="node4" class="node"><title>StoreEnergy</title><ellipse cx="532.1" cy="-213.75" fill="none" stroke="gray" stroke-width="2" rx="56.55" ry="18"/><text x="532.1" y="-208.32" font-family="Times New Roman,serif" font-size="14" text-anchor="middle">StoreEnergy</text></g><g id="edge3" class="edge"><title>Rover-&gt;StoreEnergy</title><path fill="none" stroke="#000" d="M532.1,-389.94C532.1,-349.25 532.1,-268.3 532.1,-232.49"/><polygon fill="#000" stroke="#000" points="532.1 -390.05 536.1 -396.05 532.1 -402.05 528.1 -396.05 532.1 -390.05"/><text x="574.1" y="-306.2" font-family="Times New Roman,serif" font-size="14" text-anchor="middle">&lt;containment&gt;</text></g><g id="node5" class="node"><title>MoveRover</title><ellipse cx="402.1" cy="-213.75" fill="none" stroke="gray" stroke-width="2" rx="55.06" ry="18"/><text x="402.1" y="-208.32" font-family="Times New Roman,serif" font-size="14" text-anchor="middle">MoveRover</text></g><g id="edge4" class="edge"><title>Rover-&gt;MoveRover</title><path fill="none" stroke="#000" d="M509.27,-394.22C489.87,-376.22 462.34,-348.27 444.1,-319.5 426.16,-291.2 413.45,-253.97 406.98,-232.37"/><polygon fill="#000" stroke="#000" points="509.29 -394.23 516.42 -395.3 518.18 -402.3 511.05 -401.23 509.29 -394.23"/><text x="486.1" y="-306.2" font-family="Times New Roman,serif" font-size="14" text-anchor="middle">&lt;containment&gt;</text></g><g id="node6" class="node"><title>Communicate</title><ellipse cx="669.1" cy="-213.75" fill="none" stroke="gray" stroke-width="2" rx="62.04" ry="18"/><text x="669.1" y="-208.32" font-family="Times New Roman,serif" font-size="14" text-anchor="middle">Communicate</text></g><g id="edge5" class="edge"><title>Rover-&gt;Communicate</title><path fill="none" stroke="#000" d="M554.21,-394.26C573.37,-376.11 600.96,-347.91 620.1,-319.5 639.29,-291.03 654.7,-253.86 662.83,-232.31"/><polygon fill="#000" stroke="#000" points="554.24 -394.23 552.57 -401.25 545.45 -402.4 547.12 -395.39 554.24 -394.23"/><text x="671.1" y="-306.2" font-family="Times New Roman,serif" font-size="14" text-anchor="middle">&lt;containment&gt;</text></g><g id="node9" class="node"><title>Control</title><ellipse cx="609.1" cy="-18" fill="#d3d3d3" stroke="gray" stroke-width="0" rx="39.09" ry="18"/><text x="609.1" y="-12.57" font-family="Times New Roman,serif" font-size="14" text-anchor="middle">Control</text></g><g id="edge6" class="edge"><title>ControlRover-&gt;Control</title><path fill="none" stroke="#000" d="M803.14,-182.65C795.93,-160.02 783.44,-129.37 764.1,-108 729.01,-69.24 672.96,-42.94 638.75,-29.5"/><polygon fill="none" stroke="#000" points="803.11 -182.55 808.65 -187.16 806.52 -194.05 800.98 -189.44 803.11 -182.55"/><text x="795.73" y="-110.45" font-family="Times New Roman,serif" font-size="14" text-anchor="middle">&lt;flow&gt;</text></g><g id="node7" class="node"><title>Video</title><ellipse cx="33.1" cy="-18" fill="#d3d3d3" stroke="gray" stroke-width="0" rx="33.1" ry="18"/><text x="33.1" y="-12.57" font-family="Times New Roman,serif" font-size="14" text-anchor="middle">Video</text></g><g id="edge7" class="edge"><title>ViewGround-&gt;Video</title><path fill="none" stroke="#000" d="M121.09,-190.69C96.85,-175.18 67.48,-152.15 50.85,-123.75 34.63,-96.05 32.26,-57.62 32.4,-35.83"/><polygon fill="none" stroke="#000" points="121.16 -190.73 128.37 -190.46 131.39 -197.01 124.18 -197.28 121.16 -190.73"/><text x="71.73" y="-110.45" font-family="Times New Roman,serif" font-size="14" text-anchor="middle">&lt;flow&gt;</text></g><g id="node8" class="node"><title>EE</title><ellipse cx="445.1" cy="-18" fill="#d3d3d3" stroke="gray" stroke-width="0" rx="27" ry="18"/><text x="445.1" y="-12.57" font-family="Times New Roman,serif" font-size="14" text-anchor="middle">EE</text></g><g id="edge8" class="edge"><title>ViewGround-&gt;EE</title><path fill="none" stroke="#000" d="M195.41,-189.34C256.25,-147.84 380.99,-62.74 427.29,-31.15"/><polygon fill="none" stroke="#000" points="195.48 -189.29 192.78 -195.98 185.57 -196.06 188.27 -189.37 195.48 -189.29"/><text x="332.73" y="-110.45" font-family="Times New Roman,serif" font-size="14" text-anchor="middle">&lt;flow&gt;</text></g><g id="node10" class="node"><title>Ground</title><ellipse cx="325.1" cy="-18" fill="#d3d3d3" stroke="gray" stroke-width="0" rx="39.59" ry="18"/><text x="325.1" y="-12.57" font-family="Times New Roman,serif" font-size="14" text-anchor="middle">Ground</text></g><g id="edge9" class="edge"><title>ViewGround-&gt;Ground</title><path fill="none" stroke="#000" d="M153.56,-182.32C149.81,-160.15 148.54,-130.23 161.85,-108 189.79,-61.33 251.67,-37.54 290.71,-26.73"/><polygon fill="none" stroke="#000" points="153.56 -182.34 158.66 -187.43 155.92 -194.1 150.82 -189.01 153.56 -182.34"/><text x="182.73" y="-110.45" font-family="Times New Roman,serif" font-size="14" text-anchor="middle">&lt;flow&gt;</text></g><g id="node12" class="node"><title>Force</title><ellipse cx="171.1" cy="-18" fill="#d3d3d3" stroke="gray" stroke-width="0" rx="32.6" ry="18"/><text x="171.1" y="-12.57" font-family="Times New Roman,serif" font-size="14" text-anchor="middle">Force</text></g><g id="edge10" class="edge"><title>ViewGround-&gt;Force</title><path fill="none" stroke="#000" d="M130.54,-187.75C109.59,-167.39 87.34,-137.31 97.85,-108 108.93,-77.11 135.87,-49.27 153.81,-33.25"/><polygon fill="none" stroke="#000" points="130.45 -187.67 137.57 -188.77 139.29 -195.78 132.16 -194.67 130.45 -187.67"/><text x="118.73" y="-110.45" font-family="Times New Roman,serif" font-size="14" text-anchor="middle">&lt;flow&gt;</text></g><g id="edge12" class="edge"><title>StoreEnergy-&gt;EE</title><path fill="none" stroke="#000" d="M514.29,-184.24C504.03,-167.1 491.32,-144.63 481.85,-123.75 468.16,-93.56 456.28,-56.65 449.95,-35.68"/><polygon fill="none" stroke="#000" points="514.24 -184.15 520.77 -187.19 520.47 -194.4 513.94 -191.35 514.24 -184.15"/><text x="502.73" y="-110.45" font-family="Times New Roman,serif" font-size="14" text-anchor="middle">&lt;flow&gt;</text></g><g id="edge11" class="edge"><title>StoreEnergy-&gt;Control</title><path fill="none" stroke="#000" d="M552.69,-185.07C564.37,-168.15 578.36,-145.61 587.1,-123.75 598.96,-94.07 604.82,-56.99 607.38,-35.85"/><polygon fill="none" stroke="#000" points="552.89 -184.8 552.68 -192.01 545.95 -194.59 546.15 -187.38 552.89 -184.8"/><text x="612.73" y="-110.45" font-family="Times New Roman,serif" font-size="14" text-anchor="middle">&lt;flow&gt;</text></g><g id="edge14" class="edge"><title>MoveRover-&gt;EE</title><path fill="none" stroke="#000" d="M405.52,-181.89C408.15,-160.91 412.27,-132.6 417.85,-108 423.68,-82.31 433.13,-53.26 439.23,-35.53"/><polygon fill="none" stroke="#000" points="405.51 -182 408.77 -188.43 404.09 -193.91 400.83 -187.48 405.51 -182"/><text x="438.73" y="-110.45" font-family="Times New Roman,serif" font-size="14" text-anchor="middle">&lt;flow&gt;</text></g><g id="edge13" class="edge"><title>MoveRover-&gt;Control</title><path fill="none" stroke="#000" d="M438,-189.82C463.09,-173 496.68,-148.8 523.1,-123.75 553.15,-95.26 582.53,-56.43 597.96,-34.95"/><polygon fill="none" stroke="#000" points="437.9 -189.9 435.1 -196.54 427.89 -196.51 430.68 -189.87 437.9 -189.9"/><text x="559.73" y="-110.45" font-family="Times New Roman,serif" font-size="14" text-anchor="middle">&lt;flow&gt;</text></g><g id="edge15" class="edge"><title>MoveRover-&gt;Ground</title><path fill="none" stroke="#000" d="M390.39,-183.28C373.98,-142 344.7,-68.32 331.67,-35.53"/><polygon fill="none" stroke="#000" points="390.37 -183.22 396.3 -187.32 394.8 -194.38 388.86 -190.28 390.37 -183.22"/><text x="386.73" y="-110.45" font-family="Times New Roman,serif" font-size="14" text-anchor="middle">&lt;flow&gt;</text></g><g id="edge16" class="edge"><title>MoveRover-&gt;Force</title><path fill="none" stroke="#000" d="M350.17,-196.3C311.99,-182.06 260.87,-158.28 225.85,-123.75 199.99,-98.25 183.72,-57.94 176.14,-35.48"/><polygon fill="none" stroke="#000" points="349.94 -196.21 356.94 -194.48 361.23 -200.28 354.23 -202.01 349.94 -196.21"/><text x="246.73" y="-110.45" font-family="Times New Roman,serif" font-size="14" text-anchor="middle">&lt;flow&gt;</text></g><g id="edge18" class="edge"><title>Communicate-&gt;EE</title><path fill="none" stroke="#000" d="M666.47,-182.37C663.05,-159.54 655.18,-128.76 637.1,-108 592.33,-56.61 511.63,-32.97 470.58,-23.84"/><polygon fill="none" stroke="#000" points="666.46 -182.27 671.16 -187.73 667.93 -194.18 663.22 -188.72 666.46 -182.27"/><text x="667.73" y="-110.45" font-family="Times New Roman,serif" font-size="14" text-anchor="middle">&lt;flow&gt;</text></g><g id="node11" class="node"><title>Flow</title><ellipse cx="737.1" cy="-18" fill="#d3d3d3" stroke="gray" stroke-width="0" rx="29.61" ry="18"/><text x="737.1" y="-12.57" font-family="Times New Roman,serif" font-size="14" text-anchor="middle">Flow</text></g><g id="edge17" class="edge"><title>Communicate-&gt;Flow</title><path fill="none" stroke="#000" d="M686.23,-184.45C695.92,-167.39 707.56,-144.92 715.1,-123.75 725.82,-93.64 732.07,-56.7 735.01,-35.71"/><polygon fill="none" stroke="#000" points="686.4 -184.17 686.84 -191.37 680.37 -194.54 679.92 -187.34 686.4 -184.17"/><text x="739.73" y="-110.45" font-family="Times New Roman,serif" font-size="14" text-anchor="middle">&lt;flow&gt;</text></g></g></svg>