<svg xmlns="http://www.w3.org/2000/svg" xmlns:xlink="http://www.w3.org/1999/xlink" width="1684" height="873" overflow="hidden" xml:space="preserve"><g transform="translate(-87 -73)"><rect width="312" height="205" x="359.5" y="438.5" fill="#B4C7E7" stroke="#DAE3F3" stroke-miterlimit="8" stroke-width="4.583"/><rect width="236" height="205" x="653.5" y="438.5" fill="#F8CBAD" stroke="#DAE3F3" stroke-miterlimit="8" stroke-width="4.583"/><rect width="530" height="205" x="857.5" y="438.5" fill="#C5E0B4" stroke="#DAE3F3" stroke-miterlimit="8" stroke-width="4.583"/><rect width="1408" height="337" x="276" y="345" fill="none" stroke="#4472C4" stroke-miterlimit="8" stroke-width="10.313"/><text font-family="Calibri,Calibri_MSFontService,sans-serif" font-size="73" font-weight="400" transform="matrix(1 0 0 1 308.957 431)">class</text><text font-family="Calibri,Calibri_MSFontService,sans-serif" font-size="73" font-weight="400" transform="matrix(1 0 0 1 465.363 431)">Stat</text><text font-family="Calibri,Calibri_MSFontService,sans-serif" font-size="73" font-weight="400" transform="matrix(1 0 0 1 581.023 431)">e</text><text font-family="Calibri,Calibri_MSFontService,sans-serif" font-size="73" font-weight="400" transform="matrix(1 0 0 1 617.69 431)">Name</text><text font-family="Calibri,Calibri_MSFontService,sans-serif" font-size="73" font-weight="400" transform="matrix(1 0 0 1 795.294 431)">(</text><text font-family="Calibri,Calibri_MSFontService,sans-serif" font-size="73" font-weight="400" transform="matrix(1 0 0 1 817.638 431)">State</text><text font-family="Calibri,Calibri_MSFontService,sans-serif" font-size="73" font-weight="400" transform="matrix(1 0 0 1 969.965 431)">):</text><text font-family="Calibri,Calibri_MSFontService,sans-serif" font-size="73" font-weight="400" transform="matrix(1 0 0 1 375.415 519)">varname1: float = 1.0</text><text font-family="Calibri,Calibri_MSFontService,sans-serif" font-size="73" font-weight="400" transform="matrix(1 0 0 1 375.415 607)">varname2:</text><text font-family="Calibri,Calibri_MSFontService,sans-serif" font-size="73" font-weight="400" transform="matrix(1 0 0 1 710.067 607)">str</text><text font-family="Calibri,Calibri_MSFontService,sans-serif" font-size="73" font-weight="400" transform="matrix(1 0 0 1 804.919 607)">=</text><text font-family="Calibri,Calibri_MSFontService,sans-serif" font-size="73" font-weight="400" transform="matrix(1 0 0 1 858.2 607)">“</text><text font-family="Calibri,Calibri_MSFontService,sans-serif" font-size="73" font-weight="400" transform="matrix(1 0 0 1 885.815 607)">default_value</text><text font-family="Calibri,Calibri_MSFontService,sans-serif" font-size="73" font-weight="400" transform="matrix(1 0 0 1 1291.14 607)">”</text><text font-family="Calibri,Calibri_MSFontService,sans-serif" font-size="83" font-weight="700" transform="matrix(1 0 0 1 137.318 175)">State classes are used to represent variables</text><text font-family="Calibri,Calibri_MSFontService,sans-serif" font-size="83" font-weight="700" transform="matrix(1 0 0 1 137.318 274)">(called fields) that change over time</text><rect width="465" height="189" x="158.5" y="734.5" fill="#B4C7E7" stroke="#DAE3F3" stroke-miterlimit="8" stroke-width="4.583"/><text font-family="Calibri,Calibri_MSFontService,sans-serif" font-size="64" font-weight="400" transform="matrix(1 0 0 1 246.978 850)">Field name</text><rect width="465" height="189" x="653.5" y="736.5" fill="#F8CBAD" stroke="#DAE3F3" stroke-miterlimit="8" stroke-width="4.583"/><text font-family="Calibri,Calibri_MSFontService,sans-serif" font-size="64" font-weight="400" transform="matrix(1 0 0 1 722.169 813)">Field type or</text><text font-family="Calibri,Calibri_MSFontService,sans-serif" font-size="64" font-weight="400" transform="matrix(1 0 0 1 823.85 890)">class</text><rect width="465" height="189" x="1134.5" y="734.5" fill="#C5E0B4" stroke="#DAE3F3" stroke-miterlimit="8" stroke-width="4.583"/><text font-family="Calibri,Calibri_MSFontService,sans-serif" font-size="64" font-weight="400" transform="matrix(1 0 0 1 1191 812)">Default initial</text><text font-family="Calibri,Calibri_MSFontService,sans-serif" font-size="64" font-weight="400" transform="matrix(1 0 0 1 1296.53 889)">value</text><path fill="#4472C4" d="M6.875-2.39628e-05 6.87524 69.1661-6.87476 69.1661-6.875 2.39628e-05ZM20.6252 62.291 0.000360892 103.541-20.6248 62.2912Z" transform="matrix(1 0 0 -1 515 739.541)"/><path fill="#ED7D31" d="M6.875-2.1121e-05 6.87526 83.0976-6.87474 83.0977-6.875 2.1121e-05ZM20.6252 76.2226 0.000360892 117.473-20.6248 76.2227Z" transform="matrix(1 0 0 -1 771 739.472)"/><path fill="#70AD47" d="M6.875-2.39628e-05 6.87524 69.1661-6.87476 69.1661-6.875 2.39628e-05ZM20.6252 62.291 0.000360892 103.541-20.6248 62.2912Z" transform="matrix(1 0 0 -1 1213 739.541)"/></g></svg>